<svg aria-hidden="true" style="position: absolute; width: 0; height: 0; overflow: hidden;" version="1.1" xmlns="http://www.w3.org/2000/svg" xmlns:xlink="http://www.w3.org/1999/xlink">
<defs>
<symbol id="icon-password-account-security-reset-safety-svgrepo-com-1" viewBox="0 0 32 32">
<path d="M29.027 9.221c-0.076-0.144-0.207-0.253-0.363-0.301s-0.325-0.034-0.47 0.042-0.254 0.205-0.304 0.361c-0.050 0.156-0.036 0.325 0.039 0.47 1.328 2.534 1.809 5.428 1.373 8.255s-1.766 5.442-3.796 7.458c-5.241 5.24-13.77 5.242-19.013-0-0.087-0.087-0.197-0.145-0.317-0.169s-0.244-0.012-0.357 0.035-0.21 0.126-0.278 0.228c-0.068 0.102-0.104 0.221-0.104 0.344v3.556c0 0.164 0.065 0.321 0.181 0.437s0.273 0.181 0.437 0.181c0.164 0 0.321-0.065 0.437-0.181s0.181-0.273 0.181-0.437v-2.159c2.614 2.149 5.89 3.329 9.274 3.34s6.668-1.146 9.297-3.277c2.629-2.131 4.441-5.104 5.13-8.417s0.213-6.762-1.348-9.765z"></path>
<path d="M6.494 6.494c5.243-5.242 13.771-5.242 19.013-0.001 0.087 0.087 0.197 0.146 0.317 0.17s0.244 0.012 0.358-0.035c0.113-0.047 0.21-0.126 0.278-0.228s0.104-0.221 0.104-0.344v-3.556c0-0.164-0.065-0.321-0.181-0.437s-0.273-0.181-0.437-0.181c-0.164 0-0.321 0.065-0.437 0.181s-0.181 0.273-0.181 0.437v2.159c-5.761-4.744-14.322-4.425-19.706 0.96-2.217 2.202-3.669 5.056-4.146 8.145s0.049 6.247 1.5 9.015c0.076 0.144 0.207 0.253 0.363 0.301s0.325 0.034 0.47-0.042c0.145-0.075 0.254-0.205 0.304-0.361s0.036-0.325-0.039-0.47c-1.328-2.534-1.809-5.427-1.373-8.255s1.766-5.441 3.796-7.458z"></path>
<path d="M7.9 15.91v6.84c0.001 0.447 0.18 0.876 0.496 1.192s0.745 0.494 1.192 0.496h12.825c0.447-0.001 0.876-0.18 1.192-0.496s0.494-0.745 0.496-1.192v-6.84c-0.001-0.447-0.179-0.876-0.496-1.192s-0.745-0.494-1.192-0.496h-12.825c-0.447 0.001-0.876 0.18-1.192 0.496s-0.494 0.745-0.496 1.192zM20.5 18.008c0.261 0 0.517 0.078 0.734 0.223s0.387 0.352 0.487 0.593c0.1 0.242 0.126 0.507 0.075 0.764s-0.177 0.492-0.362 0.677-0.42 0.311-0.677 0.362c-0.256 0.051-0.522 0.025-0.764-0.075s-0.448-0.269-0.593-0.487-0.223-0.473-0.223-0.734c0-0.35 0.14-0.686 0.387-0.934s0.584-0.387 0.934-0.387zM16 18.008c0.261 0 0.517 0.078 0.734 0.223s0.387 0.352 0.487 0.593c0.1 0.242 0.126 0.507 0.075 0.764s-0.177 0.492-0.362 0.677c-0.185 0.185-0.42 0.311-0.677 0.362s-0.522 0.025-0.764-0.075c-0.242-0.1-0.448-0.269-0.593-0.487s-0.223-0.473-0.223-0.734c0-0.35 0.14-0.686 0.387-0.934s0.584-0.387 0.934-0.387zM11.5 18.008c0.261 0 0.517 0.078 0.734 0.223s0.387 0.352 0.487 0.593c0.1 0.242 0.126 0.507 0.075 0.764s-0.177 0.492-0.362 0.677c-0.185 0.185-0.42 0.311-0.677 0.362s-0.522 0.025-0.764-0.075c-0.242-0.1-0.448-0.269-0.593-0.487s-0.223-0.473-0.223-0.734c0-0.35 0.14-0.686 0.387-0.934s0.584-0.387 0.934-0.387z"></path>
<path d="M21.478 12.985v-2.25c0-1.453-0.577-2.846-1.604-3.874s-2.421-1.605-3.874-1.605-2.846 0.577-3.874 1.605c-1.027 1.027-1.605 2.421-1.605 3.874v2.25h1.237v-2.25c0-1.125 0.447-2.204 1.242-2.999s1.874-1.242 2.999-1.242c1.125 0 2.204 0.447 2.999 1.242s1.242 1.874 1.242 2.999v2.25h1.237z"></path>
</symbol>
<symbol id="icon-img-box-svgrepo-com-1" viewBox="0 0 32 32">
<path fill="none" stroke="#030104" style="stroke: var(--color1, #030104)" stroke-linejoin="miter" stroke-linecap="butt" stroke-miterlimit="4" stroke-width="2.56" d="M2.56 14.507c0-5.632 0-8.448 1.75-10.197s4.565-1.75 10.197-1.75h2.987c5.632 0 8.448 0 10.197 1.75s1.75 4.565 1.75 10.197v2.987c0 5.632 0 8.448-1.75 10.197s-4.565 1.75-10.197 1.75h-2.987c-5.632 0-8.448 0-10.197-1.75s-1.75-4.565-1.75-10.197v-2.987z"></path>
<path d="M26.88 19.486l-0.558-0.56c-0.623-0.625-1.125-1.128-1.566-1.501-0.454-0.384-0.896-0.676-1.414-0.832-0.732-0.222-1.513-0.222-2.245 0-0.517 0.157-0.96 0.449-1.413 0.832-0.441 0.373-0.943 0.876-1.566 1.501l-0.025 0.025c-0.466 0.468-0.777 0.778-1.030 0.988-0.251 0.208-0.359 0.242-0.403 0.25-0.188 0.033-0.381-0.004-0.543-0.105-0.038-0.024-0.126-0.095-0.282-0.382-0.157-0.289-0.331-0.694-0.59-1.301l-0.083-0.194-0.019-0.044c-0.567-1.327-1.017-2.381-1.456-3.164-0.446-0.795-0.941-1.426-1.655-1.785-0.64-0.322-1.355-0.46-2.069-0.399-0.796 0.067-1.489 0.468-2.198 1.040-0.697 0.563-1.506 1.374-2.524 2.395l-0.121 0.122v1.103c0 0.384 0 0.751 0.001 1.102l1.186-1.19c1.059-1.062 1.809-1.813 2.433-2.317 0.621-0.501 1.017-0.673 1.354-0.701 0.428-0.036 0.857 0.047 1.241 0.24 0.302 0.152 0.607 0.459 0.997 1.156 0.393 0.7 0.811 1.677 1.401 3.057l0.083 0.194 0.015 0.035c0.241 0.564 0.443 1.037 0.64 1.399 0.202 0.371 0.449 0.726 0.829 0.961 0.486 0.302 1.067 0.414 1.63 0.315 0.44-0.077 0.8-0.314 1.125-0.584 0.316-0.262 0.679-0.627 1.112-1.060l0.027-0.027c0.653-0.655 1.109-1.111 1.493-1.436 0.377-0.318 0.63-0.462 0.861-0.532 0.439-0.133 0.908-0.133 1.347 0 0.23 0.070 0.484 0.214 0.861 0.532 0.384 0.325 0.84 0.781 1.493 1.436l1.598 1.604c0.020-0.64 0.030-1.357 0.034-2.171z"></path>
<path d="M22.4 11.52c1.060 0 1.92-0.86 1.92-1.92s-0.86-1.92-1.92-1.92c-1.060 0-1.92 0.86-1.92 1.92s0.86 1.92 1.92 1.92z"></path>
</symbol>
<symbol id="icon-Frame-7-3" viewBox="0 0 32 32">
<path fill="#d9d9d9" style="fill: var(--color2, #d9d9d9)" d="M6.4 32h19.2c3.535 0 6.4-2.865 6.4-6.4v-19.2c0-3.535-2.865-6.4-6.4-6.4h-19.2c-3.535 0-6.4 2.865-6.4 6.4v19.2c0 3.535 2.865 6.4 6.4 6.4z"></path>
<path fill="#000" style="fill: var(--color3, #000)" d="M16 5c-2.176 0-4.302 0.645-6.111 1.854s-3.219 2.927-4.051 4.937-1.050 4.222-0.626 6.356c0.424 2.134 1.472 4.094 3.010 5.632s3.498 2.586 5.632 3.010c2.134 0.424 4.346 0.207 6.356-0.626s3.728-2.242 4.937-4.051c1.209-1.809 1.854-3.936 1.854-6.111 0.007-1.446-0.273-2.88-0.824-4.217s-1.36-2.553-2.383-3.576c-1.023-1.023-2.238-1.833-3.576-2.383s-2.771-0.83-4.217-0.824zM7.050 14.95c0.185-1.595 0.794-3.111 1.762-4.392s2.262-2.279 3.747-2.891c1.484-0.612 3.106-0.816 4.695-0.59s3.090 0.872 4.346 1.873l-12.65 12.65c-1.489-1.878-2.172-4.269-1.9-6.65zM17 24.95c-2.387 0.252-4.777-0.448-6.65-1.95l12.65-12.6c0.758 0.919 1.322 1.982 1.657 3.125s0.435 2.342 0.293 3.525c-0.245 2.018-1.163 3.896-2.605 5.329s-3.325 2.339-5.345 2.571z"></path>
</symbol>
<symbol id="icon-Frame-6-3" viewBox="0 0 32 32">
<path fill="#d9d9d9" style="fill: var(--color2, #d9d9d9)" d="M6.4 32h19.2c3.535 0 6.4-2.865 6.4-6.4v-19.2c0-3.535-2.865-6.4-6.4-6.4h-19.2c-3.535 0-6.4 2.865-6.4 6.4v19.2c0 3.535 2.865 6.4 6.4 6.4z"></path>
<path fill="none" stroke="#000" style="stroke: var(--color3, #000)" stroke-linejoin="round" stroke-linecap="round" stroke-miterlimit="4" stroke-width="2.4" d="M6.4 16.4l7.2 10"></path>
<path fill="none" stroke="#000" style="stroke: var(--color3, #000)" stroke-linejoin="round" stroke-linecap="round" stroke-miterlimit="4" stroke-width="2.4" d="M13.6 26.4l12.4-20.8"></path>
</symbol>
<symbol id="icon-Frame-7-2" viewBox="0 0 32 32">
<path fill="#d9d9d9" style="fill: var(--color2, #d9d9d9)" d="M6.4 32h19.2c3.535 0 6.4-2.865 6.4-6.4v-19.2c0-3.535-2.865-6.4-6.4-6.4h-19.2c-3.535 0-6.4 2.865-6.4 6.4v19.2c0 3.535 2.865 6.4 6.4 6.4z"></path>
<path fill="none" stroke="#030104" style="stroke: var(--color1, #030104)" stroke-linejoin="miter" stroke-linecap="butt" stroke-miterlimit="10" stroke-width="0.8" d="M7.38 18c1.105 0 2-0.895 2-2s-0.895-2-2-2c-1.105 0-2 0.895-2 2s0.895 2 2 2z"></path>
<path fill="none" stroke="#030104" style="stroke: var(--color1, #030104)" stroke-linejoin="miter" stroke-linecap="butt" stroke-miterlimit="10" stroke-width="0.8" d="M16.090 17.91c1.055 0 1.91-0.855 1.91-1.91s-0.855-1.91-1.91-1.91-1.91 0.855-1.91 1.91c0 1.055 0.855 1.91 1.91 1.91z"></path>
<path fill="none" stroke="#030104" style="stroke: var(--color1, #030104)" stroke-linejoin="miter" stroke-linecap="butt" stroke-miterlimit="10" stroke-width="0.8" d="M24.71 17.91c1.055 0 1.91-0.855 1.91-1.91s-0.855-1.91-1.91-1.91-1.91 0.855-1.91 1.91c0 1.055 0.855 1.91 1.91 1.91z"></path>
</symbol>
<symbol id="icon-Frame-9-1" viewBox="0 0 33 32">
<path fill="#d9d9d9" style="fill: var(--color2, #d9d9d9)" d="M6.933 32h19.2c3.535 0 6.4-2.865 6.4-6.4v-19.2c0-3.535-2.865-6.4-6.4-6.4h-19.2c-3.535 0-6.4 2.865-6.4 6.4v19.2c0 3.535 2.865 6.4 6.4 6.4z"></path>
<path fill="#030104" style="fill: var(--color1, #030104)" d="M5.612 22.509c0-5.341 3.902-9.738 9-10.663v-2.335c0-1.872 2.153-2.926 3.631-1.776l8.343 6.489c1.158 0.901 1.158 2.651 0 3.552l-8.343 6.489c-1.478 1.15-3.631 0.096-3.631-1.776v-1.97c-2.259 0.434-4.038 1.597-5.072 3.165-0.596 0.902-1.622 1.090-2.368 0.88-0.755-0.212-1.56-0.933-1.56-2.055zM17.015 9.314c-0.164-0.128-0.404-0.011-0.404 0.197v3.906c0 0.138-0.113 0.25-0.251 0.253-3.658 0.098-6.772 2.341-8.084 5.496-0.197 0.475-0.354 0.97-0.466 1.482-0.124 0.57-0.193 1.16-0.199 1.765-0 0.032-0.001 0.064-0.001 0.097 0 0.135 0.184 0.186 0.258 0.073 0.016-0.025 0.033-0.049 0.049-0.073 0 0 0 0 0 0 0.327-0.484 0.703-0.932 1.122-1.341 0.285-0.278 0.59-0.537 0.913-0.777 1.716-1.275 3.944-2.009 6.407-2.056 0.138-0.003 0.25 0.11 0.25 0.248v3.905c0 0.208 0.239 0.325 0.404 0.197l8.343-6.489c0.129-0.1 0.129-0.294 0-0.395l-8.343-6.489z"></path>
</symbol>
<symbol id="icon-Frame-8-1" viewBox="0 0 33 32">
<path fill="#d9d9d9" style="fill: var(--color2, #d9d9d9)" d="M6.667 32h19.2c3.535 0 6.4-2.865 6.4-6.4v-19.2c0-3.535-2.865-6.4-6.4-6.4h-19.2c-3.535 0-6.4 2.865-6.4 6.4v19.2c0 3.535 2.865 6.4 6.4 6.4z"></path>
<path fill="#030104" style="fill: var(--color1, #030104)" d="M14.418 4l10.053 10.053-0.036 0.037c0.302 0.519 0.235 1.196-0.211 1.642 0 0-1.11 2.073-2.271 3.234-1.16 1.158 2.413 1.942 3.821 3.352 2.043 2.043 3.118 4.282 2.105 5.294-1.014 1.014-3.251-0.060-5.294-2.104-1.409-1.409-2.266-4.907-3.333-3.842-1.067 1.067-3.234 2.272-3.234 2.272-0.446 0.444-1.123 0.512-1.642 0.209l-0.057 0.058-10.053-10.054 10.152-10.152zM15.711 6.231c0.034 0.036 0.071 0.071 0.060 0.052l-0.060-0.052zM14.338 23.16l9.087-9.088-2.059-2.059-9.088 9.088 2.061 2.059zM6.604 14.168c0.242-0.020 1.821-0.158 2.536 0.004 1.45 0.326 2.082 0.315 2.437-1.897 0.355-2.212 1.236-1.614 3.497-0.516 3.192 1.549 2.763-2.485 0.594-5.565l-0.138-0.118-1.113-1.112-9.188 9.188 0.335 0.335c0 0 0.796-0.3 1.039-0.319z"></path>
</symbol>
<symbol id="icon-Frame-6-2" viewBox="0 0 32 32">
<path fill="#d9d9d9" style="fill: var(--color2, #d9d9d9)" d="M6.4 32h19.2c3.535 0 6.4-2.865 6.4-6.4v-19.2c0-3.535-2.865-6.4-6.4-6.4h-19.2c-3.535 0-6.4 2.865-6.4 6.4v19.2c0 3.535 2.865 6.4 6.4 6.4z"></path>
<path fill="#030104" style="fill: var(--color1, #030104)" d="M5.091 25.6h6.545c0.289 0 0.567-0.112 0.771-0.311s0.32-0.469 0.32-0.751-0.115-0.552-0.32-0.751c-0.205-0.199-0.482-0.311-0.771-0.311h-5.377c0.265-1.768 1.174-3.384 2.562-4.553s3.161-1.814 4.997-1.816c1.285 0.011 2.532-0.416 3.528-1.206s1.675-1.895 1.921-3.122c0.246-1.227 0.043-2.499-0.573-3.595s-1.608-1.949-2.802-2.409c-1.194-0.46-2.517-0.499-3.737-0.11s-2.263 1.181-2.947 2.239-0.965 2.316-0.796 3.555c0.169 1.239 0.779 2.381 1.723 3.229-1.811 0.715-3.361 1.938-4.454 3.515s-1.678 3.434-1.68 5.335c0 0.282 0.115 0.552 0.32 0.751s0.482 0.311 0.771 0.311zM13.818 8.616c0.647 0 1.28 0.187 1.818 0.537s0.958 0.847 1.205 1.429c0.248 0.582 0.312 1.222 0.186 1.84s-0.438 1.185-0.896 1.63-1.041 0.749-1.676 0.872c-0.635 0.123-1.293 0.060-1.891-0.181s-1.109-0.649-1.469-1.173c-0.36-0.524-0.552-1.139-0.552-1.769 0-0.845 0.345-1.655 0.959-2.252s1.446-0.933 2.314-0.933zM24.953 13.173c-0.205-0.199-0.482-0.311-0.771-0.311s-0.567 0.112-0.771 0.311l-6.818 6.634c-0.119 0.117-0.209 0.259-0.263 0.415l-1.364 3.981c-0.055 0.159-0.069 0.329-0.043 0.495s0.092 0.324 0.193 0.46c0.101 0.136 0.234 0.248 0.388 0.324s0.324 0.117 0.497 0.117c0.117-0 0.234-0.018 0.345-0.054l4.091-1.327c0.161-0.052 0.307-0.14 0.427-0.257l6.818-6.634c0.205-0.199 0.319-0.469 0.319-0.75s-0.115-0.551-0.319-0.75l-2.727-2.654zM19.499 22.284l-1.777 0.576 0.592-1.729 5.868-5.707 1.185 1.153-5.868 5.707z"></path>
</symbol>
<symbol id="icon-delete-alt-svgrepo-com-1" viewBox="0 0 31 32">
<path fill="#e33f3f" style="fill: var(--color4, #e33f3f)" d="M21.795 5.744v1.282h-2.564v-1.282h-7.692v1.282h-2.564v-1.282c0-0.68 0.27-1.332 0.751-1.813s1.133-0.751 1.813-0.751h7.692c0.68 0 1.332 0.27 1.813 0.751s0.751 1.133 0.751 1.813z"></path>
<path fill="#e33f3f" style="fill: var(--color4, #e33f3f)" d="M25.641 8.308h-20.513c-0.34 0-0.666 0.135-0.907 0.376s-0.376 0.567-0.376 0.907c0 0.34 0.135 0.666 0.376 0.907s0.567 0.376 0.907 0.376h1.282v15.385c0 0.68 0.27 1.332 0.751 1.813s1.133 0.751 1.813 0.751h12.82c0.68 0 1.332-0.27 1.813-0.751s0.751-1.133 0.751-1.813v-15.385h1.282c0.34 0 0.666-0.135 0.907-0.376s0.375-0.567 0.375-0.907-0.135-0.666-0.375-0.907c-0.24-0.24-0.567-0.376-0.907-0.376zM14.103 22.41c0 0.34-0.135 0.666-0.376 0.907s-0.567 0.375-0.906 0.375c-0.34 0-0.666-0.135-0.907-0.375s-0.376-0.567-0.376-0.907v-7.692c0-0.34 0.135-0.666 0.376-0.906s0.567-0.376 0.907-0.376c0.34 0 0.666 0.135 0.906 0.376s0.376 0.567 0.376 0.906v7.692zM19.231 22.41c0 0.34-0.135 0.666-0.375 0.907s-0.567 0.375-0.907 0.375c-0.34 0-0.666-0.135-0.906-0.375s-0.375-0.567-0.375-0.907v-7.692c0-0.34 0.135-0.666 0.375-0.906s0.567-0.376 0.906-0.376c0.34 0 0.666 0.135 0.907 0.376s0.375 0.567 0.375 0.906v7.692z"></path>
</symbol>
<symbol id="icon-broom-svgrepo-com-1" viewBox="0 0 31 32">
<path d="M28.641 1.232c-0.099-0.005-0.201 0.005-0.295 0.018-0.397 0.055-0.738 0.249-0.978 0.609l-0.018 0.037-0.018 0.018-5.054 9.501c-0.569-0.212-1.134-0.337-1.66-0.351-0.567-0.014-1.102 0.074-1.586 0.277-0.934 0.39-1.639 1.153-2.103 2.122-0.021 0.030-0.039 0.060-0.055 0.092-0.002 0.005 0.002 0.014 0 0.018-0.007 0.011-0.014 0.025-0.018 0.037-0.007 0.023-0.014 0.049-0.018 0.074-0.32 0.8-0.689 1.52-1.107 2.159-0.005 0.007-0.014 0.012-0.018 0.018-0.053 0.046-0.097 0.104-0.129 0.166-0.002 0.005 0.002 0.014 0 0.018-0.021 0.030-0.039 0.060-0.055 0.092-1.409 2.018-3.244 3.233-4.98 3.985-2.366 1.024-4.63 1.132-5.128 1.088-0.237-0.023-0.466 0.097-0.579 0.307-0.111 0.21-0.088 0.468 0.062 0.653 6.726 8.302 16.619 8.597 16.619 8.597 0.118 0.002 0.233-0.030 0.332-0.092 0 0 1.222-0.775 2.693-2.62 1.105-1.386 2.363-3.39 3.449-6.162 0.007-0.007 0.012-0.011 0.018-0.018 0.136-0.127 0.205-0.311 0.184-0.498 0-0.007 0-0.012 0-0.018 0.286-0.773 0.563-1.584 0.812-2.472 0.009-0.037 0.016-0.074 0.018-0.111 0-0.007 0-0.011 0-0.018 0.786-2.029-0.090-4.264-1.974-5.239l3.652-10.129v-0.018l0.018-0.018c0.12-0.42-0.018-0.823-0.24-1.144-0.21-0.302-0.516-0.54-0.885-0.701v-0.018c-0.011-0.005-0.025 0.005-0.037 0-0.007-0.002-0.012-0.016-0.018-0.018-0.288-0.136-0.604-0.228-0.904-0.24zM28.567 2.468c0.134-0.021 0.309-0.021 0.498 0.074l0.018 0.018h0.018c0.191 0.076 0.351 0.205 0.424 0.314s0.053 0.173 0.055 0.166l-3.597 9.981c-0.433-0.196-0.733-0.334-1.346-0.609-0.457-0.205-0.89-0.404-1.273-0.572l4.98-9.317c-0.005 0.005 0.088-0.035 0.221-0.055zM3.592 5.973c-1.298 0-2.361 1.063-2.361 2.361s1.063 2.361 2.361 2.361c1.298 0 2.361-1.063 2.361-2.361s-1.063-2.361-2.361-2.361zM3.592 7.154c0.659 0 1.18 0.521 1.18 1.181s-0.521 1.181-1.181 1.181c-0.659 0-1.181-0.521-1.181-1.181s0.521-1.181 1.181-1.181zM8.904 7.745c-0.652 0-1.181 0.528-1.181 1.181s0.528 1.181 1.181 1.181c0.652 0 1.181-0.528 1.181-1.181s-0.528-1.181-1.181-1.181zM8.019 11.877c-1.787 0-3.246 1.46-3.246 3.247s1.46 3.247 3.246 3.247 3.246-1.46 3.246-3.247c0-1.787-1.46-3.247-3.246-3.247zM20.598 12.246c0.41 0.012 0.86 0.095 1.365 0.295 0.011 0.007 0.025 0.014 0.037 0.018 0.134 0.21 0.385 0.314 0.627 0.258 0.067 0.028 0.060 0.025 0.129 0.055 0.399 0.173 0.902 0.385 1.402 0.609 0.733 0.328 1.197 0.528 1.623 0.72 0.011 0.014 0.023 0.025 0.037 0.037 0.127 0.175 0.339 0.268 0.553 0.24 0.007 0 0.012 0 0.018 0 1.411 0.646 2.034 2.184 1.549 3.671-0.233-0.007-0.41 0.005-0.849-0.092-0.327-0.072-0.646-0.187-0.885-0.332s-0.378-0.288-0.443-0.48c-0.051-0.166-0.173-0.3-0.334-0.367-0.159-0.069-0.341-0.062-0.496 0.016-0.198 0.099-0.699 0.062-1.144-0.166-0.221-0.113-0.42-0.272-0.553-0.406s-0.171-0.261-0.166-0.24c-0.032-0.173-0.138-0.323-0.293-0.408-0.152-0.085-0.337-0.097-0.5-0.035-0.016 0.007-0.212 0.025-0.443-0.018s-0.498-0.138-0.756-0.258-0.496-0.265-0.646-0.387c-0.15-0.122-0.164-0.249-0.148-0.092-0.039-0.311-0.314-0.54-0.627-0.517-0.593 0.055-1.148-0.38-1.476-0.664 0.346-0.584 0.775-1.049 1.31-1.273 0.327-0.136 0.696-0.196 1.107-0.185zM8.019 13.058c1.148 0 2.066 0.918 2.066 2.066s-0.918 2.066-2.066 2.066c-1.148 0-2.066-0.918-2.066-2.066s0.918-2.066 2.066-2.066zM17.647 14.811c0.41 0.295 0.98 0.602 1.66 0.664 0.108 0.159 0.226 0.288 0.369 0.406 0.256 0.212 0.572 0.399 0.904 0.553s0.68 0.284 1.033 0.351c0.182 0.035 0.369-0.035 0.553-0.037 0.088 0.134 0.127 0.311 0.24 0.424 0.24 0.24 0.526 0.443 0.849 0.609 0.48 0.247 1.056 0.332 1.623 0.258 0.194 0.291 0.427 0.535 0.701 0.701 0.403 0.242 0.844 0.39 1.254 0.48 0.288 0.062 0.551 0.090 0.793 0.111-0.164 0.53-0.341 1.029-0.516 1.513-0.212-0.007-0.473-0.018-0.756-0.074-0.646-0.124-1.257-0.41-1.513-0.904-0.138-0.258-0.445-0.376-0.719-0.277-0.293 0.104-0.823 0.060-1.273-0.148s-0.791-0.567-0.867-0.83c-0.049-0.159-0.164-0.291-0.316-0.36-0.15-0.072-0.323-0.074-0.477-0.009-0.143 0.060-0.701 0.044-1.162-0.166s-0.759-0.563-0.793-0.756c-0.030-0.164-0.127-0.304-0.267-0.392s-0.311-0.113-0.47-0.069c-0.558 0.15-0.994-0.049-1.346-0.314-0.122-0.090-0.212-0.189-0.295-0.277 0.286-0.454 0.551-0.936 0.793-1.457zM16.172 17.246c0.088 0.081 0.171 0.159 0.277 0.24 0.436 0.328 1.107 0.561 1.863 0.517 0.274 0.514 0.719 0.909 1.236 1.144 0.51 0.233 1.054 0.307 1.586 0.24 0.295 0.482 0.705 0.89 1.217 1.125 0.546 0.251 1.16 0.316 1.752 0.221 0.551 0.689 1.335 1.065 2.029 1.199 0.184 0.035 0.367 0.058 0.535 0.074-0.982 2.373-2.082 4.11-3.043 5.313-1.231 1.543-2.064 2.126-2.25 2.251-0.21-0.009-1.748-0.118-3.91-0.72 0.177-0.115 0.369-0.235 0.572-0.387 0.985-0.738 2.273-1.942 3.523-3.801 0.131-0.191 0.141-0.441 0.021-0.639-0.12-0.201-0.343-0.311-0.574-0.284-0.173 0.018-0.328 0.113-0.424 0.258-1.171 1.743-2.377 2.86-3.265 3.524-0.844 0.632-1.333 0.828-1.383 0.849-1.328-0.468-2.799-1.109-4.298-2.011 0.217-0.072 0.447-0.166 0.701-0.277 1.121-0.489 2.619-1.402 4.15-3.118 0.184-0.184 0.226-0.468 0.104-0.697-0.125-0.231-0.383-0.353-0.639-0.3-0.136 0.023-0.26 0.097-0.35 0.203-1.42 1.589-2.751 2.396-3.726 2.823s-1.531 0.461-1.531 0.461c-0.025 0.005-0.051 0.012-0.074 0.018-1.224-0.863-2.446-1.912-3.597-3.173 1.123-0.088 2.569-0.316 4.353-1.088 1.762-0.763 3.641-2.009 5.146-3.967z"></path>
</symbol>
<symbol id="icon-Frame-6-1" viewBox="0 0 32 32">
<path fill="#d9d9d9" style="fill: var(--color2, #d9d9d9)" d="M6.4 32h19.2c3.535 0 6.4-2.865 6.4-6.4v-19.2c0-3.535-2.865-6.4-6.4-6.4h-19.2c-3.535 0-6.4 2.865-6.4 6.4v19.2c0 3.535 2.865 6.4 6.4 6.4z"></path>
<path fill="#030104" style="fill: var(--color1, #030104)" d="M8.040 22.534h15.921c0.954 0 1.517-0.492 1.517-1.215 0-1.004-1.015-1.908-1.888-2.802-0.663-0.693-0.844-2.119-0.914-3.275-0.080-3.857-1.095-6.519-3.777-7.483-0.372-1.306-1.416-2.35-2.893-2.35-1.487 0-2.521 1.045-2.903 2.35-2.672 0.964-3.696 3.626-3.767 7.483-0.080 1.155-0.251 2.582-0.924 3.275-0.864 0.894-1.888 1.798-1.888 2.802 0 0.723 0.573 1.215 1.517 1.215zM12.941 23.9c0.121 1.467 1.356 2.692 3.064 2.692 1.698 0 2.933-1.225 3.064-2.692h-6.127z"></path>
</symbol>
<symbol id="icon-search" viewBox="0 0 29 32">
<path fill="#cfcfcf" style="fill: var(--color5, #cfcfcf)" d="M23.52 28l-7.56-8.4c-0.6 0.533-1.29 0.956-2.070 1.267s-1.61 0.467-2.49 0.467c-2.18 0-4.025-0.839-5.535-2.517s-2.265-3.728-2.265-6.15c0-2.422 0.755-4.472 2.265-6.15s3.355-2.517 5.535-2.517c2.18 0 4.025 0.839 5.535 2.517s2.265 3.728 2.265 6.15c0 0.978-0.14 1.9-0.42 2.767s-0.66 1.633-1.14 2.3l7.56 8.4-1.68 1.867zM11.4 18.667c1.5 0 2.775-0.583 3.825-1.75s1.575-2.583 1.575-4.25-0.525-3.083-1.575-4.25c-1.050-1.167-2.325-1.75-3.825-1.75s-2.775 0.583-3.825 1.75c-1.050 1.167-1.575 2.583-1.575 4.25s0.525 3.083 1.575 4.25c1.050 1.167 2.325 1.75 3.825 1.75z"></path>
</symbol>
<symbol id="icon-settings" viewBox="0 0 32 32">
<path fill="#cfcfcf" style="fill: var(--color5, #cfcfcf)" d="M12.333 29.333l-0.533-4.267c-0.289-0.111-0.561-0.244-0.817-0.4s-0.506-0.322-0.75-0.5l-3.967 1.667-3.667-6.333 3.433-2.6c-0.022-0.156-0.033-0.306-0.033-0.45v-0.9c0-0.144 0.011-0.294 0.033-0.45l-3.433-2.6 3.667-6.333 3.967 1.667c0.244-0.178 0.5-0.344 0.767-0.5s0.533-0.289 0.8-0.4l0.533-4.267h7.333l0.533 4.267c0.289 0.111 0.561 0.244 0.817 0.4s0.506 0.322 0.75 0.5l3.967-1.667 3.667 6.333-3.433 2.6c0.022 0.156 0.033 0.306 0.033 0.45v0.9c0 0.144-0.022 0.294-0.067 0.45l3.433 2.6-3.667 6.333-3.933-1.667c-0.244 0.178-0.5 0.344-0.767 0.5s-0.533 0.289-0.8 0.4l-0.533 4.267h-7.333zM14.667 26.667h2.633l0.467-3.533c0.689-0.178 1.328-0.439 1.917-0.783s1.128-0.761 1.617-1.25l3.3 1.367 1.3-2.267-2.867-2.167c0.111-0.311 0.189-0.639 0.233-0.983s0.067-0.695 0.067-1.050-0.022-0.706-0.067-1.050c-0.044-0.344-0.122-0.672-0.233-0.983l2.867-2.167-1.3-2.267-3.3 1.4c-0.489-0.511-1.028-0.939-1.617-1.283s-1.228-0.606-1.917-0.783l-0.433-3.533h-2.633l-0.467 3.533c-0.689 0.178-1.328 0.439-1.917 0.783s-1.128 0.761-1.617 1.25l-3.3-1.367-1.3 2.267 2.867 2.133c-0.111 0.333-0.189 0.667-0.233 1s-0.067 0.689-0.067 1.067c0 0.356 0.022 0.7 0.067 1.033s0.122 0.667 0.233 1l-2.867 2.167 1.3 2.267 3.3-1.4c0.489 0.511 1.028 0.939 1.617 1.283s1.228 0.605 1.917 0.783l0.433 3.533zM16.067 20.667c1.289 0 2.389-0.456 3.3-1.367s1.367-2.011 1.367-3.3c0-1.289-0.456-2.389-1.367-3.3s-2.011-1.367-3.3-1.367c-1.311 0-2.417 0.456-3.317 1.367s-1.35 2.011-1.35 3.3c0 1.289 0.45 2.389 1.35 3.3s2.006 1.367 3.317 1.367z"></path>
</symbol>
<symbol id="icon-add-profile-svgrepo-com-1" viewBox="0 0 32 32">
<path fill="#cfcfcf" style="fill: var(--color5, #cfcfcf)" d="M2.667 28h10.667c0.354 0 0.693-0.14 0.943-0.391s0.391-0.589 0.391-0.943c0-0.354-0.14-0.693-0.391-0.943s-0.589-0.391-0.943-0.391h-9.239c0.324-2.22 1.435-4.25 3.131-5.719s3.864-2.279 6.108-2.281c1.57 0.014 3.095-0.523 4.312-1.515s2.047-2.38 2.348-3.921 0.053-3.139-0.7-4.516c-0.753-1.377-1.965-2.448-3.425-3.026s-3.076-0.627-4.568-0.139-2.766 1.484-3.602 2.813c-0.835 1.329-1.18 2.909-0.973 4.465s0.952 2.991 2.106 4.056c-2.213 0.898-4.108 2.435-5.444 4.415s-2.050 4.313-2.054 6.701c0 0.354 0.14 0.693 0.391 0.943s0.589 0.391 0.943 0.391zM13.333 6.667c0.791 0 1.565 0.235 2.222 0.674s1.171 1.064 1.473 1.795 0.382 1.535 0.228 2.311c-0.154 0.776-0.535 1.489-1.095 2.048s-1.272 0.94-2.048 1.095-1.58 0.075-2.311-0.228c-0.731-0.303-1.356-0.815-1.795-1.473s-0.674-1.431-0.674-2.222c0-1.061 0.421-2.078 1.172-2.828s1.768-1.172 2.828-1.172zM30.667 21.333c0 0.354-0.14 0.693-0.39 0.943s-0.589 0.391-0.943 0.391h-4v4c0 0.354-0.14 0.693-0.391 0.943s-0.589 0.391-0.943 0.391-0.693-0.14-0.943-0.391c-0.25-0.25-0.391-0.589-0.391-0.943v-4h-4c-0.354 0-0.693-0.14-0.943-0.391s-0.391-0.589-0.391-0.943 0.14-0.693 0.391-0.943c0.25-0.25 0.589-0.39 0.943-0.39h4v-4c0-0.354 0.14-0.693 0.391-0.943s0.589-0.391 0.943-0.391c0.354 0 0.693 0.14 0.943 0.391s0.391 0.589 0.391 0.943v4h4c0.354 0 0.693 0.14 0.943 0.39s0.39 0.589 0.39 0.943z"></path>
</symbol>
<symbol id="icon-close-svgrepo-com-1" viewBox="0 0 32 32">
<path fill="#cfcfcf" style="fill: var(--color5, #cfcfcf)" d="M24.391 5.724l1.886 1.886-8.391 8.39 8.391 8.391-1.886 1.886-8.391-8.391-8.39 8.391-1.886-1.886 8.39-8.391-8.39-8.39 1.886-1.886 8.39 8.39 8.391-8.39z"></path>
</symbol>
<symbol id="icon-Frame-7" viewBox="0 0 32 32">
<path fill="#d9d9d9" style="fill: var(--color2, #d9d9d9)" d="M6.4 32h19.2c3.535 0 6.4-2.865 6.4-6.4v-19.2c0-3.535-2.865-6.4-6.4-6.4h-19.2c-3.535 0-6.4 2.865-6.4 6.4v19.2c0 3.535 2.865 6.4 6.4 6.4z"></path>
<path fill="#030104" style="fill: var(--color1, #030104)" d="M11.229 8.532l13.53 13.52c0.171-0.191 0.261-0.452 0.261-0.733 0-1.004-1.015-1.909-1.888-2.802-0.663-0.693-0.844-2.119-0.924-3.275-0.070-3.857-1.095-6.519-3.767-7.483-0.372-1.306-1.416-2.35-2.893-2.35-1.487 0-2.521 1.045-2.903 2.35-0.532 0.181-1.004 0.442-1.416 0.773zM24.538 25.728c0.301 0.301 0.794 0.301 1.095 0 0.301-0.291 0.301-0.793 0-1.095l-17.669-17.648c-0.301-0.301-0.804-0.301-1.105 0-0.291 0.291-0.291 0.794 0 1.095l17.679 17.648zM7.583 22.534h12.104l-10.467-10.477c-0.211 0.934-0.321 1.999-0.342 3.184-0.080 1.155-0.261 2.581-0.924 3.275-0.864 0.894-1.888 1.798-1.888 2.802 0 0.723 0.573 1.215 1.517 1.215zM15.548 26.592c1.698 0 2.933-1.225 3.064-2.692h-6.127c0.12 1.467 1.356 2.692 3.064 2.692z"></path>
</symbol>
<symbol id="icon-Vector" viewBox="0 0 32 32">
<path fill="#bbb" style="fill: var(--color1, #bbb)" d="M11.652 8.754c-8.126 0-11.594 3.468-11.594 11.594s3.468 11.594 11.594 11.594 11.594-3.468 11.594-11.594c0-8.126-3.468-11.594-11.594-11.594zM11.652 30.493c-7.396 0-10.145-2.749-10.145-10.145s2.749-10.145 10.145-10.145 10.145 2.749 10.145 10.145c0 7.396-2.749 10.145-10.145 10.145zM14.188 17.449c0-0.6 0.487-1.087 1.087-1.087s1.087 0.487 1.087 1.087c0 0.6-0.487 1.087-1.087 1.087s-1.087-0.487-1.087-1.087zM6.942 17.449c0-0.6 0.487-1.087 1.087-1.087s1.087 0.487 1.087 1.087c0 0.6-0.487 1.087-1.087 1.087s-1.087-0.487-1.087-1.087zM16.509 23.455c0.285 0.28 0.29 0.739 0.009 1.025-1.103 1.12-2.694 1.665-4.864 1.665s-3.762-0.545-4.864-1.665c-0.281-0.285-0.277-0.745 0.009-1.025 0.285-0.281 0.743-0.277 1.025 0.009 0.828 0.84 2.045 1.233 3.832 1.233s3.004-0.393 3.832-1.233c0.278-0.285 0.739-0.29 1.025-0.009h-0.003zM31.942 6.58c0 0.4-0.325 0.725-0.725 0.725h-5.072v5.072c0 0.4-0.325 0.725-0.725 0.725s-0.725-0.325-0.725-0.725v-5.072h-5.072c-0.4 0-0.725-0.325-0.725-0.725s0.325-0.725 0.725-0.725h5.072v-5.072c0-0.4 0.325-0.725 0.725-0.725s0.725 0.325 0.725 0.725v5.072h5.072c0.4 0 0.725 0.325 0.725 0.725z"></path>
</symbol>
</defs>
</svg>
