<svg aria-hidden="true" style="position: absolute; width: 0; height: 0; overflow: hidden;" version="1.1" xmlns="http://www.w3.org/2000/svg" xmlns:xlink="http://www.w3.org/1999/xlink">
<defs>
<symbol id="icon-add-friend-icon" viewBox="0 0 32 32">
<path d="M2.667 28h10.667c0.354 0 0.693-0.14 0.943-0.391s0.391-0.589 0.391-0.943c0-0.354-0.14-0.693-0.391-0.943s-0.589-0.391-0.943-0.391h-9.239c0.324-2.22 1.435-4.25 3.131-5.719s3.864-2.278 6.108-2.281c1.57 0.014 3.095-0.522 4.312-1.515s2.047-2.38 2.348-3.921 0.053-3.139-0.7-4.516c-0.753-1.377-1.965-2.448-3.425-3.026s-3.076-0.627-4.568-0.139-2.766 1.484-3.602 2.813c-0.835 1.329-1.18 2.909-0.973 4.465s0.952 2.991 2.106 4.056c-2.213 0.898-4.108 2.435-5.444 4.415s-2.050 4.313-2.054 6.701c0 0.354 0.14 0.693 0.391 0.943s0.589 0.391 0.943 0.391zM13.333 6.667c0.791 0 1.565 0.235 2.222 0.674s1.171 1.064 1.473 1.795 0.382 1.535 0.228 2.311c-0.154 0.776-0.535 1.489-1.095 2.048s-1.272 0.94-2.048 1.095-1.58 0.075-2.311-0.228c-0.731-0.303-1.356-0.815-1.795-1.473s-0.674-1.431-0.674-2.222c0-1.061 0.421-2.078 1.172-2.828s1.768-1.172 2.828-1.172zM30.667 21.333c0 0.354-0.14 0.693-0.39 0.943s-0.589 0.391-0.943 0.391h-4v4c0 0.354-0.14 0.693-0.391 0.943s-0.589 0.391-0.943 0.391-0.693-0.14-0.943-0.391c-0.25-0.25-0.391-0.589-0.391-0.943v-4h-4c-0.354 0-0.693-0.14-0.943-0.391s-0.391-0.589-0.391-0.943c0-0.354 0.14-0.693 0.391-0.943s0.589-0.391 0.943-0.391h4v-4c0-0.354 0.14-0.693 0.391-0.943s0.589-0.391 0.943-0.391c0.354 0 0.693 0.14 0.943 0.391s0.391 0.589 0.391 0.943v4h4c0.354 0 0.693 0.14 0.943 0.391s0.39 0.589 0.39 0.943z"></path>
</symbol>
<symbol id="icon-close-btn" viewBox="0 0 32 32">
<path d="M27.986 1.32l2.694 2.694-11.987 11.986 11.987 11.987-2.694 2.694-11.987-11.987-11.986 11.987-2.694-2.694 11.986-11.987-11.986-11.986 2.694-2.694 11.986 11.986 11.987-11.986z"></path>
</symbol>
</defs>
</svg>
